<?xml version="1.0" standalone="no"?>
<!DOCTYPE svg PUBLIC "-//W3C//DTD SVG 20010904//EN"
 "http://www.w3.org/TR/2001/REC-SVG-20010904/DTD/svg10.dtd">
<svg version="1.0" xmlns="http://www.w3.org/2000/svg"
 width="512.000000pt" height="512.000000pt" viewBox="0 0 512.000000 512.000000"
 preserveAspectRatio="xMidYMid meet">
<metadata>
Created by potrace 1.11, written by Peter Selinger 2001-2013
</metadata>
<g transform="translate(0.000000,512.000000) scale(0.100000,-0.100000)"
fill="#000000" stroke="none">
<path d="M2528 4588 c-2 -7 1 -33 7 -57 14 -54 28 -32 15 24 -9 42 -16 51 -22
33z"/>
<path d="M2654 4549 c-14 -18 -11 -330 5 -484 13 -117 75 -440 95 -489 l12
-30 38 50 c52 68 134 139 198 171 42 21 67 27 118 27 81 -1 125 -19 190 -80
27 -26 50 -43 50 -39 0 4 -7 33 -15 64 -49 190 -197 401 -364 518 -69 48 -197
112 -269 133 l-41 13 -3 80 c-2 61 -6 77 -14 66z"/>
<path d="M2313 4409 c-106 -13 -308 -79 -333 -110 -3 -3 -18 -13 -35 -22 -16
-9 -43 -28 -60 -42 -38 -33 -26 -31 115 24 115 45 170 59 170 43 0 -17 -21
-28 -150 -77 -69 -26 -126 -49 -128 -51 -2 -1 3 -10 11 -21 9 -10 61 -75 117
-145 127 -160 323 -364 339 -354 8 6 3 15 -16 33 -15 14 -59 55 -96 92 -67 64
-69 67 -64 106 3 21 13 45 22 51 16 12 16 15 1 36 -21 29 -21 74 0 82 9 3 20
4 25 0 5 -3 9 4 9 15 0 12 -5 21 -11 21 -6 0 -9 14 -7 33 3 30 5 32 41 31 28
-1 37 2 33 12 -13 35 -17 113 -7 133 12 22 45 29 56 11 14 -22 23 -7 29 46 4
31 5 58 4 58 -2 1 -31 -1 -65 -5z"/>
<path d="M1699 4345 c-15 -15 37 -145 58 -145 3 0 -2 11 -10 24 -9 13 -22 47
-29 76 -7 28 -16 49 -19 45z"/>
<path d="M1614 4230 c4 -48 23 -106 32 -98 5 6 -14 92 -27 123 -7 14 -8 7 -5
-25z"/>
<path d="M1600 4055 c0 -3 10 -25 23 -49 14 -28 30 -46 44 -49 21 -4 21 -2 -6
29 -16 18 -32 42 -36 53 -5 18 -25 30 -25 16z"/>
<path d="M3587 3912 c-3 -15 -19 -41 -35 -59 -21 -22 -26 -35 -19 -42 20 -20
37 -12 37 17 0 31 24 71 35 60 4 -4 10 -27 12 -53 5 -43 23 -64 23 -27 0 26
-29 120 -39 126 -5 3 -11 -7 -14 -22z"/>
<path d="M1594 3917 c-3 -9 -3 -20 0 -26 3 -5 -7 -44 -24 -87 -44 -116 -56
-202 -51 -396 1 -58 4 -68 19 -68 10 0 22 4 27 9 6 4 57 25 115 45 141 49 138
47 121 88 -7 18 -15 45 -18 60 -3 15 -12 29 -20 32 -8 3 -11 1 -8 -4 3 -6 -1
-10 -10 -10 -9 0 -13 4 -10 10 3 5 -2 21 -11 36 -15 22 -15 29 -5 46 11 18 9
24 -19 49 -36 34 -37 67 -3 85 22 10 22 11 -17 40 -22 16 -49 47 -59 68 -15
30 -22 36 -27 23z"/>
<path d="M3490 3776 c0 -7 -7 -19 -15 -26 -8 -7 -15 -28 -15 -47 0 -34 1 -35
22 -21 12 8 31 26 41 40 18 25 18 26 1 47 -21 24 -34 27 -34 7z"/>
<path d="M3160 3726 c0 -9 7 -16 16 -16 17 0 14 22 -4 28 -7 2 -12 -3 -12 -12z"/>
<path d="M3600 3731 c0 -6 -16 -27 -35 -48 -19 -20 -32 -39 -30 -41 7 -8 75
44 85 66 13 30 13 32 -5 32 -8 0 -15 -4 -15 -9z"/>
<path d="M2390 3621 c0 -16 165 -109 205 -115 l40 -6 -37 14 c-20 8 -72 37
-114 65 -77 51 -94 59 -94 42z"/>
<path d="M3255 3619 c-64 -37 -91 -83 -165 -280 -126 -333 -284 -493 -540
-545 -68 -13 -117 -16 -242 -11 -151 5 -161 4 -230 -20 -136 -48 -278 -32
-278 30 0 31 -64 57 -86 35 -20 -20 -8 -45 26 -57 21 -7 29 -17 32 -38 4 -36
46 -52 139 -52 51 -1 77 -7 115 -27 211 -112 498 -129 734 -43 296 108 520
359 592 664 11 47 20 128 22 199 2 80 7 121 16 126 18 11 0 19 -61 25 -33 3
-62 1 -74 -6z"/>
<path d="M2310 3516 c0 -2 7 -7 16 -10 8 -3 12 -2 9 4 -6 10 -25 14 -25 6z"/>
<path d="M1680 3353 c-80 -30 -146 -57 -147 -58 -4 -2 11 -49 41 -128 30 -80
89 -193 118 -224 13 -13 18 -28 14 -41 -4 -11 -1 -24 6 -30 10 -8 16 -5 24 13
9 19 9 25 -2 29 -8 3 -14 17 -14 31 0 20 7 29 30 36 17 6 30 17 30 25 0 7 11
21 24 29 19 13 50 15 162 13 96 -2 154 1 186 11 l47 13 -82 49 c-88 52 -185
146 -243 237 -19 28 -38 52 -42 52 -4 -1 -72 -26 -152 -57z"/>
<path d="M1352 3325 c0 -11 3 -29 8 -40 11 -25 11 1 0 35 -6 20 -8 21 -8 5z"/>
<path d="M1385 3128 c9 -43 34 -102 40 -96 6 5 -34 128 -42 128 -2 0 -1 -15 2
-32z"/>
<path d="M1436 2995 c15 -71 205 -335 241 -335 18 0 23 -6 -79 106 -26 28 -61
77 -80 108 -18 31 -45 78 -61 104 -23 40 -26 42 -21 17z"/>
<path d="M2715 2990 c-3 -6 1 -7 9 -4 18 7 21 14 7 14 -6 0 -13 -4 -16 -10z"/>
<path d="M1750 2589 c19 -17 49 -38 65 -46 17 -9 32 -19 35 -24 7 -10 159 -79
176 -79 8 0 14 -4 14 -8 0 -11 68 -32 102 -32 13 0 28 -4 34 -10 26 -26 383
-28 429 -2 8 4 -75 7 -183 7 -185 0 -203 2 -297 28 -55 15 -101 32 -103 37 -2
6 -11 10 -20 10 -17 0 -56 19 -122 59 -19 11 -42 24 -50 28 -8 3 -30 19 -48
35 -18 15 -40 28 -50 28 -12 -1 -7 -9 18 -31z"/>
<path d="M2910 2510 c-19 -11 -31 -19 -27 -20 11 0 67 29 67 35 0 7 -1 7 -40
-15z"/>
<path d="M2805 2461 c-22 -11 -36 -20 -32 -20 12 -1 77 27 77 33 0 8 0 8 -45
-13z"/>
<path d="M2690 2420 c-36 -10 -57 -19 -47 -19 27 -1 107 20 113 30 3 5 4 9 2
8 -2 -1 -32 -9 -68 -19z"/>
<path d="M960 2040 c0 -13 10 -24 25 -30 l25 -10 0 -165 c0 -158 -1 -165 -20
-165 -15 0 -20 -7 -20 -25 0 -25 1 -25 80 -25 75 0 80 1 80 21 0 12 -8 23 -20
26 -18 5 -20 14 -20 87 0 92 8 106 57 106 42 0 53 -25 53 -119 0 -60 -2 -69
-20 -74 -12 -3 -20 -14 -20 -26 0 -20 5 -21 80 -21 79 0 80 0 80 25 0 18 -5
25 -19 25 -17 0 -19 10 -23 100 -3 87 -6 102 -27 124 -31 33 -70 41 -116 22
-21 -9 -39 -16 -41 -16 -2 0 -4 36 -4 80 l0 80 -65 0 c-59 0 -65 -2 -65 -20z"/>
<path d="M2350 2036 c0 -15 7 -26 20 -29 19 -5 20 -14 20 -170 0 -156 -1 -165
-20 -170 -12 -3 -20 -14 -20 -26 0 -20 5 -21 80 -21 79 0 80 0 80 25 0 16 -6
25 -15 25 -12 0 -15 17 -15 89 0 95 3 101 54 101 38 0 46 -19 46 -107 0 -67
-3 -83 -15 -83 -9 0 -15 -9 -15 -25 0 -25 1 -25 80 -25 75 0 80 1 80 21 0 12
-8 23 -20 26 -18 5 -20 14 -20 87 0 105 -19 145 -76 165 -36 13 -44 12 -74 -2
-18 -10 -35 -17 -37 -17 -1 0 -3 36 -3 80 l0 80 -65 0 c-62 0 -65 -1 -65 -24z"/>
<path d="M703 2031 c-104 -27 -163 -146 -133 -271 26 -107 119 -164 230 -141
80 16 104 38 108 95 l3 47 -33 -3 c-27 -2 -34 -8 -36 -30 -2 -14 -9 -32 -17
-38 -18 -15 -95 -16 -121 -2 -37 20 -57 77 -52 153 3 59 8 72 33 99 24 25 37
30 75 30 53 0 77 -15 82 -50 2 -20 9 -26 36 -28 l33 -3 -3 48 c-3 44 -6 49
-44 70 -47 26 -114 36 -161 24z"/>
<path d="M2917 2007 c3 -14 14 -27 24 -30 18 -5 19 -16 19 -156 0 -144 -1
-151 -20 -151 -15 0 -20 -7 -20 -25 l0 -25 117 0 c141 0 186 16 222 81 20 35
22 51 19 134 -3 101 -14 126 -72 169 -24 18 -45 21 -160 24 l-134 4 5 -25z
m226 -48 c39 -18 57 -60 57 -134 0 -105 -30 -145 -109 -145 l-41 0 0 145 0
145 35 0 c19 0 45 -5 58 -11z"/>
<path d="M2126 1920 c-63 -20 -96 -73 -96 -156 0 -97 49 -149 140 -149 57 0
97 20 116 57 21 41 18 48 -25 48 -29 0 -40 -5 -44 -18 -10 -42 -80 -31 -98 15
-12 32 -5 109 13 130 7 8 25 13 47 11 28 -2 36 -8 41 -28 5 -21 12 -25 40 -25
22 0 35 5 34 13 -1 6 -2 25 -2 42 -1 19 -10 35 -25 45 -29 19 -103 27 -141 15z"/>
<path d="M3446 1920 c-68 -21 -100 -78 -94 -166 3 -54 9 -68 33 -94 42 -43 91
-56 160 -41 60 14 69 21 60 51 -6 18 -12 20 -43 13 -20 -4 -47 -7 -60 -6 -29
1 -62 30 -62 55 0 16 9 18 90 18 l90 0 0 43 c0 23 -6 53 -13 66 -27 53 -99 80
-161 61z m82 -72 c7 -7 12 -20 12 -30 0 -15 -9 -18 -50 -18 -41 0 -50 3 -50
18 0 25 20 42 50 42 14 0 31 -5 38 -12z"/>
<path d="M4358 1923 c-96 -15 -141 -180 -72 -263 44 -51 142 -63 202 -23 30
19 62 88 62 133 0 61 -34 118 -82 140 -42 19 -57 21 -110 13z m86 -85 c20 -28
20 -116 1 -142 -19 -25 -73 -26 -91 -1 -19 26 -18 115 2 143 10 14 26 22 44
22 18 0 34 -8 44 -22z"/>
<path d="M1360 1896 c0 -13 6 -26 14 -29 10 -4 15 -32 18 -96 5 -104 23 -139
78 -155 31 -9 40 -7 103 19 12 5 17 2 17 -9 0 -13 11 -16 55 -16 54 0 55 0 55
30 0 20 -5 30 -15 30 -12 0 -15 19 -17 103 0 56 0 112 1 125 2 21 -2 22 -59
22 -70 0 -90 -20 -51 -49 20 -15 22 -24 19 -101 -3 -80 -4 -84 -28 -90 -14 -4
-36 -3 -48 1 -21 8 -22 14 -22 124 l0 115 -60 0 c-57 0 -60 -1 -60 -24z"/>
<path d="M1760 1896 c0 -15 7 -26 20 -29 18 -5 20 -14 20 -100 0 -86 -2 -95
-20 -100 -12 -3 -20 -14 -20 -26 0 -20 5 -21 85 -21 80 0 85 1 85 21 0 12 -8
23 -20 26 -18 5 -20 14 -20 84 0 83 9 99 58 99 21 0 32 18 32 51 0 24 -51 27
-71 3 -11 -14 -13 -14 -21 0 -7 12 -25 16 -68 16 -57 0 -60 -1 -60 -24z"/>
<path d="M3672 1898 c2 -13 13 -27 26 -33 21 -9 22 -16 22 -102 0 -86 -1 -93
-20 -93 -15 0 -20 -7 -20 -25 0 -25 1 -25 80 -25 75 0 80 1 80 21 0 12 -8 23
-20 26 -18 5 -20 14 -20 89 0 89 9 104 59 104 30 0 41 -30 41 -114 0 -61 -3
-76 -15 -76 -9 0 -15 -9 -15 -25 0 -24 2 -25 75 -25 69 0 75 2 75 20 0 11 -7
23 -15 26 -12 5 -15 24 -15 88 0 86 8 106 45 106 37 0 45 -20 45 -107 0 -64
-3 -83 -14 -83 -13 0 -26 -20 -26 -41 0 -5 38 -9 85 -9 80 0 85 1 85 21 0 12
-8 23 -19 26 -16 4 -19 18 -23 91 -3 48 -11 99 -18 113 -23 49 -91 63 -146 30
-29 -18 -31 -18 -53 0 -29 24 -89 25 -120 3 -22 -16 -24 -16 -33 0 -7 12 -24
16 -69 16 -57 0 -60 -1 -57 -22z"/>
</g>
</svg>
